<mxfile host="Electron" agent="Mozilla/5.0 (Windows NT 10.0; Win64; x64) AppleWebKit/537.36 (KHTML, like Gecko) draw.io/28.0.6 Chrome/138.0.7204.100 Electron/37.2.3 Safari/537.36" version="28.0.6">
  <diagram name="Page-1" id="O2Yhm64TRhZ34ZG-01Ox">
    <mxGraphModel dx="2106" dy="770" grid="1" gridSize="10" guides="1" tooltips="1" connect="1" arrows="1" fold="1" page="1" pageScale="1" pageWidth="1100" pageHeight="850" math="0" shadow="0">
      <root>
        <mxCell id="0" />
        <mxCell id="1" parent="0" />
        <mxCell id="X3bHwzdbiimVvPXPTUk3-1" value="&lt;font style=&quot;font-size: 19px;&quot;&gt;&lt;b&gt;Data Mart&lt;/b&gt; (Star Schema)&lt;/font&gt;" style="text;html=1;align=center;verticalAlign=middle;whiteSpace=wrap;rounded=0;" vertex="1" parent="1">
          <mxGeometry x="-10" y="20" width="280" height="30" as="geometry" />
        </mxCell>
        <mxCell id="X3bHwzdbiimVvPXPTUk3-2" value="gold.dim_customer" style="shape=table;startSize=40;container=1;collapsible=1;childLayout=tableLayout;fixedRows=1;rowLines=0;fontStyle=1;align=center;resizeLast=1;html=1;rounded=1;fillColor=#fff2cc;strokeColor=#d6b656;fontSize=16;" vertex="1" parent="1">
          <mxGeometry x="130" y="140" width="180" height="430" as="geometry" />
        </mxCell>
        <mxCell id="X3bHwzdbiimVvPXPTUk3-3" value="" style="shape=tableRow;horizontal=0;startSize=0;swimlaneHead=0;swimlaneBody=0;fillColor=none;collapsible=0;dropTarget=0;points=[[0,0.5],[1,0.5]];portConstraint=eastwest;top=0;left=0;right=0;bottom=1;fontSize=16;" vertex="1" parent="X3bHwzdbiimVvPXPTUk3-2">
          <mxGeometry y="40" width="180" height="39" as="geometry" />
        </mxCell>
        <mxCell id="X3bHwzdbiimVvPXPTUk3-4" value="PK" style="shape=partialRectangle;connectable=0;fillColor=none;top=0;left=0;bottom=0;right=0;fontStyle=1;overflow=hidden;whiteSpace=wrap;html=1;fontSize=16;" vertex="1" parent="X3bHwzdbiimVvPXPTUk3-3">
          <mxGeometry width="30" height="39" as="geometry">
            <mxRectangle width="30" height="39" as="alternateBounds" />
          </mxGeometry>
        </mxCell>
        <mxCell id="X3bHwzdbiimVvPXPTUk3-5" value="customer_key" style="shape=partialRectangle;connectable=0;fillColor=none;top=0;left=0;bottom=0;right=0;align=left;spacingLeft=6;fontStyle=5;overflow=hidden;whiteSpace=wrap;html=1;fontSize=16;" vertex="1" parent="X3bHwzdbiimVvPXPTUk3-3">
          <mxGeometry x="30" width="150" height="39" as="geometry">
            <mxRectangle width="150" height="39" as="alternateBounds" />
          </mxGeometry>
        </mxCell>
        <mxCell id="X3bHwzdbiimVvPXPTUk3-6" value="" style="shape=tableRow;horizontal=0;startSize=0;swimlaneHead=0;swimlaneBody=0;fillColor=none;collapsible=0;dropTarget=0;points=[[0,0.5],[1,0.5]];portConstraint=eastwest;top=0;left=0;right=0;bottom=0;fontSize=16;" vertex="1" parent="X3bHwzdbiimVvPXPTUk3-2">
          <mxGeometry y="79" width="180" height="39" as="geometry" />
        </mxCell>
        <mxCell id="X3bHwzdbiimVvPXPTUk3-7" value="" style="shape=partialRectangle;connectable=0;fillColor=none;top=0;left=0;bottom=0;right=0;editable=1;overflow=hidden;whiteSpace=wrap;html=1;fontSize=16;" vertex="1" parent="X3bHwzdbiimVvPXPTUk3-6">
          <mxGeometry width="30" height="39" as="geometry">
            <mxRectangle width="30" height="39" as="alternateBounds" />
          </mxGeometry>
        </mxCell>
        <mxCell id="X3bHwzdbiimVvPXPTUk3-8" value="customer_id" style="shape=partialRectangle;connectable=0;fillColor=none;top=0;left=0;bottom=0;right=0;align=left;spacingLeft=6;overflow=hidden;whiteSpace=wrap;html=1;fontSize=16;" vertex="1" parent="X3bHwzdbiimVvPXPTUk3-6">
          <mxGeometry x="30" width="150" height="39" as="geometry">
            <mxRectangle width="150" height="39" as="alternateBounds" />
          </mxGeometry>
        </mxCell>
        <mxCell id="X3bHwzdbiimVvPXPTUk3-9" value="" style="shape=tableRow;horizontal=0;startSize=0;swimlaneHead=0;swimlaneBody=0;fillColor=none;collapsible=0;dropTarget=0;points=[[0,0.5],[1,0.5]];portConstraint=eastwest;top=0;left=0;right=0;bottom=0;fontSize=16;" vertex="1" parent="X3bHwzdbiimVvPXPTUk3-2">
          <mxGeometry y="118" width="180" height="39" as="geometry" />
        </mxCell>
        <mxCell id="X3bHwzdbiimVvPXPTUk3-10" value="" style="shape=partialRectangle;connectable=0;fillColor=none;top=0;left=0;bottom=0;right=0;editable=1;overflow=hidden;whiteSpace=wrap;html=1;fontSize=16;" vertex="1" parent="X3bHwzdbiimVvPXPTUk3-9">
          <mxGeometry width="30" height="39" as="geometry">
            <mxRectangle width="30" height="39" as="alternateBounds" />
          </mxGeometry>
        </mxCell>
        <mxCell id="X3bHwzdbiimVvPXPTUk3-11" value="customer_number" style="shape=partialRectangle;connectable=0;fillColor=none;top=0;left=0;bottom=0;right=0;align=left;spacingLeft=6;overflow=hidden;whiteSpace=wrap;html=1;fontSize=16;" vertex="1" parent="X3bHwzdbiimVvPXPTUk3-9">
          <mxGeometry x="30" width="150" height="39" as="geometry">
            <mxRectangle width="150" height="39" as="alternateBounds" />
          </mxGeometry>
        </mxCell>
        <mxCell id="X3bHwzdbiimVvPXPTUk3-12" value="" style="shape=tableRow;horizontal=0;startSize=0;swimlaneHead=0;swimlaneBody=0;fillColor=none;collapsible=0;dropTarget=0;points=[[0,0.5],[1,0.5]];portConstraint=eastwest;top=0;left=0;right=0;bottom=0;fontSize=16;" vertex="1" parent="X3bHwzdbiimVvPXPTUk3-2">
          <mxGeometry y="157" width="180" height="39" as="geometry" />
        </mxCell>
        <mxCell id="X3bHwzdbiimVvPXPTUk3-13" value="" style="shape=partialRectangle;connectable=0;fillColor=none;top=0;left=0;bottom=0;right=0;editable=1;overflow=hidden;whiteSpace=wrap;html=1;fontSize=16;" vertex="1" parent="X3bHwzdbiimVvPXPTUk3-12">
          <mxGeometry width="30" height="39" as="geometry">
            <mxRectangle width="30" height="39" as="alternateBounds" />
          </mxGeometry>
        </mxCell>
        <mxCell id="X3bHwzdbiimVvPXPTUk3-14" value="first_name" style="shape=partialRectangle;connectable=0;fillColor=none;top=0;left=0;bottom=0;right=0;align=left;spacingLeft=6;overflow=hidden;whiteSpace=wrap;html=1;fontSize=16;" vertex="1" parent="X3bHwzdbiimVvPXPTUk3-12">
          <mxGeometry x="30" width="150" height="39" as="geometry">
            <mxRectangle width="150" height="39" as="alternateBounds" />
          </mxGeometry>
        </mxCell>
        <mxCell id="X3bHwzdbiimVvPXPTUk3-15" value="" style="shape=tableRow;horizontal=0;startSize=0;swimlaneHead=0;swimlaneBody=0;fillColor=none;collapsible=0;dropTarget=0;points=[[0,0.5],[1,0.5]];portConstraint=eastwest;top=0;left=0;right=0;bottom=0;fontSize=16;" vertex="1" parent="X3bHwzdbiimVvPXPTUk3-2">
          <mxGeometry y="196" width="180" height="39" as="geometry" />
        </mxCell>
        <mxCell id="X3bHwzdbiimVvPXPTUk3-16" value="" style="shape=partialRectangle;connectable=0;fillColor=none;top=0;left=0;bottom=0;right=0;editable=1;overflow=hidden;whiteSpace=wrap;html=1;fontSize=16;" vertex="1" parent="X3bHwzdbiimVvPXPTUk3-15">
          <mxGeometry width="30" height="39" as="geometry">
            <mxRectangle width="30" height="39" as="alternateBounds" />
          </mxGeometry>
        </mxCell>
        <mxCell id="X3bHwzdbiimVvPXPTUk3-17" value="last_name" style="shape=partialRectangle;connectable=0;fillColor=none;top=0;left=0;bottom=0;right=0;align=left;spacingLeft=6;overflow=hidden;whiteSpace=wrap;html=1;fontSize=16;" vertex="1" parent="X3bHwzdbiimVvPXPTUk3-15">
          <mxGeometry x="30" width="150" height="39" as="geometry">
            <mxRectangle width="150" height="39" as="alternateBounds" />
          </mxGeometry>
        </mxCell>
        <mxCell id="X3bHwzdbiimVvPXPTUk3-18" value="" style="shape=tableRow;horizontal=0;startSize=0;swimlaneHead=0;swimlaneBody=0;fillColor=none;collapsible=0;dropTarget=0;points=[[0,0.5],[1,0.5]];portConstraint=eastwest;top=0;left=0;right=0;bottom=0;fontSize=16;" vertex="1" parent="X3bHwzdbiimVvPXPTUk3-2">
          <mxGeometry y="235" width="180" height="39" as="geometry" />
        </mxCell>
        <mxCell id="X3bHwzdbiimVvPXPTUk3-19" value="" style="shape=partialRectangle;connectable=0;fillColor=none;top=0;left=0;bottom=0;right=0;editable=1;overflow=hidden;whiteSpace=wrap;html=1;fontSize=16;" vertex="1" parent="X3bHwzdbiimVvPXPTUk3-18">
          <mxGeometry width="30" height="39" as="geometry">
            <mxRectangle width="30" height="39" as="alternateBounds" />
          </mxGeometry>
        </mxCell>
        <mxCell id="X3bHwzdbiimVvPXPTUk3-20" value="country" style="shape=partialRectangle;connectable=0;fillColor=none;top=0;left=0;bottom=0;right=0;align=left;spacingLeft=6;overflow=hidden;whiteSpace=wrap;html=1;fontSize=16;" vertex="1" parent="X3bHwzdbiimVvPXPTUk3-18">
          <mxGeometry x="30" width="150" height="39" as="geometry">
            <mxRectangle width="150" height="39" as="alternateBounds" />
          </mxGeometry>
        </mxCell>
        <mxCell id="X3bHwzdbiimVvPXPTUk3-21" value="" style="shape=tableRow;horizontal=0;startSize=0;swimlaneHead=0;swimlaneBody=0;fillColor=none;collapsible=0;dropTarget=0;points=[[0,0.5],[1,0.5]];portConstraint=eastwest;top=0;left=0;right=0;bottom=0;fontSize=16;" vertex="1" parent="X3bHwzdbiimVvPXPTUk3-2">
          <mxGeometry y="274" width="180" height="39" as="geometry" />
        </mxCell>
        <mxCell id="X3bHwzdbiimVvPXPTUk3-22" value="" style="shape=partialRectangle;connectable=0;fillColor=none;top=0;left=0;bottom=0;right=0;editable=1;overflow=hidden;whiteSpace=wrap;html=1;fontSize=16;" vertex="1" parent="X3bHwzdbiimVvPXPTUk3-21">
          <mxGeometry width="30" height="39" as="geometry">
            <mxRectangle width="30" height="39" as="alternateBounds" />
          </mxGeometry>
        </mxCell>
        <mxCell id="X3bHwzdbiimVvPXPTUk3-23" value="material_status" style="shape=partialRectangle;connectable=0;fillColor=none;top=0;left=0;bottom=0;right=0;align=left;spacingLeft=6;overflow=hidden;whiteSpace=wrap;html=1;fontSize=16;" vertex="1" parent="X3bHwzdbiimVvPXPTUk3-21">
          <mxGeometry x="30" width="150" height="39" as="geometry">
            <mxRectangle width="150" height="39" as="alternateBounds" />
          </mxGeometry>
        </mxCell>
        <mxCell id="X3bHwzdbiimVvPXPTUk3-24" value="" style="shape=tableRow;horizontal=0;startSize=0;swimlaneHead=0;swimlaneBody=0;fillColor=none;collapsible=0;dropTarget=0;points=[[0,0.5],[1,0.5]];portConstraint=eastwest;top=0;left=0;right=0;bottom=0;fontSize=16;" vertex="1" parent="X3bHwzdbiimVvPXPTUk3-2">
          <mxGeometry y="313" width="180" height="39" as="geometry" />
        </mxCell>
        <mxCell id="X3bHwzdbiimVvPXPTUk3-25" value="" style="shape=partialRectangle;connectable=0;fillColor=none;top=0;left=0;bottom=0;right=0;editable=1;overflow=hidden;whiteSpace=wrap;html=1;fontSize=16;" vertex="1" parent="X3bHwzdbiimVvPXPTUk3-24">
          <mxGeometry width="30" height="39" as="geometry">
            <mxRectangle width="30" height="39" as="alternateBounds" />
          </mxGeometry>
        </mxCell>
        <mxCell id="X3bHwzdbiimVvPXPTUk3-26" value="gender" style="shape=partialRectangle;connectable=0;fillColor=none;top=0;left=0;bottom=0;right=0;align=left;spacingLeft=6;overflow=hidden;whiteSpace=wrap;html=1;fontSize=16;" vertex="1" parent="X3bHwzdbiimVvPXPTUk3-24">
          <mxGeometry x="30" width="150" height="39" as="geometry">
            <mxRectangle width="150" height="39" as="alternateBounds" />
          </mxGeometry>
        </mxCell>
        <mxCell id="X3bHwzdbiimVvPXPTUk3-27" value="" style="shape=tableRow;horizontal=0;startSize=0;swimlaneHead=0;swimlaneBody=0;fillColor=none;collapsible=0;dropTarget=0;points=[[0,0.5],[1,0.5]];portConstraint=eastwest;top=0;left=0;right=0;bottom=0;fontSize=16;" vertex="1" parent="X3bHwzdbiimVvPXPTUk3-2">
          <mxGeometry y="352" width="180" height="39" as="geometry" />
        </mxCell>
        <mxCell id="X3bHwzdbiimVvPXPTUk3-28" value="" style="shape=partialRectangle;connectable=0;fillColor=none;top=0;left=0;bottom=0;right=0;editable=1;overflow=hidden;whiteSpace=wrap;html=1;fontSize=16;" vertex="1" parent="X3bHwzdbiimVvPXPTUk3-27">
          <mxGeometry width="30" height="39" as="geometry">
            <mxRectangle width="30" height="39" as="alternateBounds" />
          </mxGeometry>
        </mxCell>
        <mxCell id="X3bHwzdbiimVvPXPTUk3-29" value="birthdate" style="shape=partialRectangle;connectable=0;fillColor=none;top=0;left=0;bottom=0;right=0;align=left;spacingLeft=6;overflow=hidden;whiteSpace=wrap;html=1;fontSize=16;" vertex="1" parent="X3bHwzdbiimVvPXPTUk3-27">
          <mxGeometry x="30" width="150" height="39" as="geometry">
            <mxRectangle width="150" height="39" as="alternateBounds" />
          </mxGeometry>
        </mxCell>
        <mxCell id="X3bHwzdbiimVvPXPTUk3-30" value="" style="shape=tableRow;horizontal=0;startSize=0;swimlaneHead=0;swimlaneBody=0;fillColor=none;collapsible=0;dropTarget=0;points=[[0,0.5],[1,0.5]];portConstraint=eastwest;top=0;left=0;right=0;bottom=0;fontSize=16;" vertex="1" parent="X3bHwzdbiimVvPXPTUk3-2">
          <mxGeometry y="391" width="180" height="39" as="geometry" />
        </mxCell>
        <mxCell id="X3bHwzdbiimVvPXPTUk3-31" value="" style="shape=partialRectangle;connectable=0;fillColor=none;top=0;left=0;bottom=0;right=0;editable=1;overflow=hidden;whiteSpace=wrap;html=1;fontSize=16;" vertex="1" parent="X3bHwzdbiimVvPXPTUk3-30">
          <mxGeometry width="30" height="39" as="geometry">
            <mxRectangle width="30" height="39" as="alternateBounds" />
          </mxGeometry>
        </mxCell>
        <mxCell id="X3bHwzdbiimVvPXPTUk3-32" value="create_date" style="shape=partialRectangle;connectable=0;fillColor=none;top=0;left=0;bottom=0;right=0;align=left;spacingLeft=6;overflow=hidden;whiteSpace=wrap;html=1;fontSize=16;" vertex="1" parent="X3bHwzdbiimVvPXPTUk3-30">
          <mxGeometry x="30" width="150" height="39" as="geometry">
            <mxRectangle width="150" height="39" as="alternateBounds" />
          </mxGeometry>
        </mxCell>
        <mxCell id="X3bHwzdbiimVvPXPTUk3-33" value="gold.dim_products" style="shape=table;startSize=40;container=1;collapsible=1;childLayout=tableLayout;fixedRows=1;rowLines=0;fontStyle=1;align=center;resizeLast=1;html=1;rounded=1;fillColor=#fff2cc;strokeColor=#d6b656;fontSize=16;" vertex="1" parent="1">
          <mxGeometry x="750" y="130.5" width="180" height="469" as="geometry" />
        </mxCell>
        <mxCell id="X3bHwzdbiimVvPXPTUk3-34" value="" style="shape=tableRow;horizontal=0;startSize=0;swimlaneHead=0;swimlaneBody=0;fillColor=none;collapsible=0;dropTarget=0;points=[[0,0.5],[1,0.5]];portConstraint=eastwest;top=0;left=0;right=0;bottom=1;fontSize=16;" vertex="1" parent="X3bHwzdbiimVvPXPTUk3-33">
          <mxGeometry y="40" width="180" height="39" as="geometry" />
        </mxCell>
        <mxCell id="X3bHwzdbiimVvPXPTUk3-35" value="PK" style="shape=partialRectangle;connectable=0;fillColor=none;top=0;left=0;bottom=0;right=0;fontStyle=1;overflow=hidden;whiteSpace=wrap;html=1;fontSize=16;" vertex="1" parent="X3bHwzdbiimVvPXPTUk3-34">
          <mxGeometry width="30" height="39" as="geometry">
            <mxRectangle width="30" height="39" as="alternateBounds" />
          </mxGeometry>
        </mxCell>
        <mxCell id="X3bHwzdbiimVvPXPTUk3-36" value="product_key" style="shape=partialRectangle;connectable=0;fillColor=none;top=0;left=0;bottom=0;right=0;align=left;spacingLeft=6;fontStyle=5;overflow=hidden;whiteSpace=wrap;html=1;fontSize=16;" vertex="1" parent="X3bHwzdbiimVvPXPTUk3-34">
          <mxGeometry x="30" width="150" height="39" as="geometry">
            <mxRectangle width="150" height="39" as="alternateBounds" />
          </mxGeometry>
        </mxCell>
        <mxCell id="X3bHwzdbiimVvPXPTUk3-37" value="" style="shape=tableRow;horizontal=0;startSize=0;swimlaneHead=0;swimlaneBody=0;fillColor=none;collapsible=0;dropTarget=0;points=[[0,0.5],[1,0.5]];portConstraint=eastwest;top=0;left=0;right=0;bottom=0;fontSize=16;" vertex="1" parent="X3bHwzdbiimVvPXPTUk3-33">
          <mxGeometry y="79" width="180" height="39" as="geometry" />
        </mxCell>
        <mxCell id="X3bHwzdbiimVvPXPTUk3-38" value="" style="shape=partialRectangle;connectable=0;fillColor=none;top=0;left=0;bottom=0;right=0;editable=1;overflow=hidden;whiteSpace=wrap;html=1;fontSize=16;" vertex="1" parent="X3bHwzdbiimVvPXPTUk3-37">
          <mxGeometry width="30" height="39" as="geometry">
            <mxRectangle width="30" height="39" as="alternateBounds" />
          </mxGeometry>
        </mxCell>
        <mxCell id="X3bHwzdbiimVvPXPTUk3-39" value="product_id" style="shape=partialRectangle;connectable=0;fillColor=none;top=0;left=0;bottom=0;right=0;align=left;spacingLeft=6;overflow=hidden;whiteSpace=wrap;html=1;fontSize=16;" vertex="1" parent="X3bHwzdbiimVvPXPTUk3-37">
          <mxGeometry x="30" width="150" height="39" as="geometry">
            <mxRectangle width="150" height="39" as="alternateBounds" />
          </mxGeometry>
        </mxCell>
        <mxCell id="X3bHwzdbiimVvPXPTUk3-40" value="" style="shape=tableRow;horizontal=0;startSize=0;swimlaneHead=0;swimlaneBody=0;fillColor=none;collapsible=0;dropTarget=0;points=[[0,0.5],[1,0.5]];portConstraint=eastwest;top=0;left=0;right=0;bottom=0;fontSize=16;" vertex="1" parent="X3bHwzdbiimVvPXPTUk3-33">
          <mxGeometry y="118" width="180" height="39" as="geometry" />
        </mxCell>
        <mxCell id="X3bHwzdbiimVvPXPTUk3-41" value="" style="shape=partialRectangle;connectable=0;fillColor=none;top=0;left=0;bottom=0;right=0;editable=1;overflow=hidden;whiteSpace=wrap;html=1;fontSize=16;" vertex="1" parent="X3bHwzdbiimVvPXPTUk3-40">
          <mxGeometry width="30" height="39" as="geometry">
            <mxRectangle width="30" height="39" as="alternateBounds" />
          </mxGeometry>
        </mxCell>
        <mxCell id="X3bHwzdbiimVvPXPTUk3-42" value="product_number" style="shape=partialRectangle;connectable=0;fillColor=none;top=0;left=0;bottom=0;right=0;align=left;spacingLeft=6;overflow=hidden;whiteSpace=wrap;html=1;fontSize=16;" vertex="1" parent="X3bHwzdbiimVvPXPTUk3-40">
          <mxGeometry x="30" width="150" height="39" as="geometry">
            <mxRectangle width="150" height="39" as="alternateBounds" />
          </mxGeometry>
        </mxCell>
        <mxCell id="X3bHwzdbiimVvPXPTUk3-43" value="" style="shape=tableRow;horizontal=0;startSize=0;swimlaneHead=0;swimlaneBody=0;fillColor=none;collapsible=0;dropTarget=0;points=[[0,0.5],[1,0.5]];portConstraint=eastwest;top=0;left=0;right=0;bottom=0;fontSize=16;" vertex="1" parent="X3bHwzdbiimVvPXPTUk3-33">
          <mxGeometry y="157" width="180" height="39" as="geometry" />
        </mxCell>
        <mxCell id="X3bHwzdbiimVvPXPTUk3-44" value="" style="shape=partialRectangle;connectable=0;fillColor=none;top=0;left=0;bottom=0;right=0;editable=1;overflow=hidden;whiteSpace=wrap;html=1;fontSize=16;" vertex="1" parent="X3bHwzdbiimVvPXPTUk3-43">
          <mxGeometry width="30" height="39" as="geometry">
            <mxRectangle width="30" height="39" as="alternateBounds" />
          </mxGeometry>
        </mxCell>
        <mxCell id="X3bHwzdbiimVvPXPTUk3-45" value="product_name" style="shape=partialRectangle;connectable=0;fillColor=none;top=0;left=0;bottom=0;right=0;align=left;spacingLeft=6;overflow=hidden;whiteSpace=wrap;html=1;fontSize=16;" vertex="1" parent="X3bHwzdbiimVvPXPTUk3-43">
          <mxGeometry x="30" width="150" height="39" as="geometry">
            <mxRectangle width="150" height="39" as="alternateBounds" />
          </mxGeometry>
        </mxCell>
        <mxCell id="X3bHwzdbiimVvPXPTUk3-46" value="" style="shape=tableRow;horizontal=0;startSize=0;swimlaneHead=0;swimlaneBody=0;fillColor=none;collapsible=0;dropTarget=0;points=[[0,0.5],[1,0.5]];portConstraint=eastwest;top=0;left=0;right=0;bottom=0;fontSize=16;" vertex="1" parent="X3bHwzdbiimVvPXPTUk3-33">
          <mxGeometry y="196" width="180" height="39" as="geometry" />
        </mxCell>
        <mxCell id="X3bHwzdbiimVvPXPTUk3-47" value="" style="shape=partialRectangle;connectable=0;fillColor=none;top=0;left=0;bottom=0;right=0;editable=1;overflow=hidden;whiteSpace=wrap;html=1;fontSize=16;" vertex="1" parent="X3bHwzdbiimVvPXPTUk3-46">
          <mxGeometry width="30" height="39" as="geometry">
            <mxRectangle width="30" height="39" as="alternateBounds" />
          </mxGeometry>
        </mxCell>
        <mxCell id="X3bHwzdbiimVvPXPTUk3-48" value="category_id" style="shape=partialRectangle;connectable=0;fillColor=none;top=0;left=0;bottom=0;right=0;align=left;spacingLeft=6;overflow=hidden;whiteSpace=wrap;html=1;fontSize=16;" vertex="1" parent="X3bHwzdbiimVvPXPTUk3-46">
          <mxGeometry x="30" width="150" height="39" as="geometry">
            <mxRectangle width="150" height="39" as="alternateBounds" />
          </mxGeometry>
        </mxCell>
        <mxCell id="X3bHwzdbiimVvPXPTUk3-49" value="" style="shape=tableRow;horizontal=0;startSize=0;swimlaneHead=0;swimlaneBody=0;fillColor=none;collapsible=0;dropTarget=0;points=[[0,0.5],[1,0.5]];portConstraint=eastwest;top=0;left=0;right=0;bottom=0;fontSize=16;" vertex="1" parent="X3bHwzdbiimVvPXPTUk3-33">
          <mxGeometry y="235" width="180" height="39" as="geometry" />
        </mxCell>
        <mxCell id="X3bHwzdbiimVvPXPTUk3-50" value="" style="shape=partialRectangle;connectable=0;fillColor=none;top=0;left=0;bottom=0;right=0;editable=1;overflow=hidden;whiteSpace=wrap;html=1;fontSize=16;" vertex="1" parent="X3bHwzdbiimVvPXPTUk3-49">
          <mxGeometry width="30" height="39" as="geometry">
            <mxRectangle width="30" height="39" as="alternateBounds" />
          </mxGeometry>
        </mxCell>
        <mxCell id="X3bHwzdbiimVvPXPTUk3-51" value="category" style="shape=partialRectangle;connectable=0;fillColor=none;top=0;left=0;bottom=0;right=0;align=left;spacingLeft=6;overflow=hidden;whiteSpace=wrap;html=1;fontSize=16;" vertex="1" parent="X3bHwzdbiimVvPXPTUk3-49">
          <mxGeometry x="30" width="150" height="39" as="geometry">
            <mxRectangle width="150" height="39" as="alternateBounds" />
          </mxGeometry>
        </mxCell>
        <mxCell id="X3bHwzdbiimVvPXPTUk3-52" value="" style="shape=tableRow;horizontal=0;startSize=0;swimlaneHead=0;swimlaneBody=0;fillColor=none;collapsible=0;dropTarget=0;points=[[0,0.5],[1,0.5]];portConstraint=eastwest;top=0;left=0;right=0;bottom=0;fontSize=16;" vertex="1" parent="X3bHwzdbiimVvPXPTUk3-33">
          <mxGeometry y="274" width="180" height="39" as="geometry" />
        </mxCell>
        <mxCell id="X3bHwzdbiimVvPXPTUk3-53" value="" style="shape=partialRectangle;connectable=0;fillColor=none;top=0;left=0;bottom=0;right=0;editable=1;overflow=hidden;whiteSpace=wrap;html=1;fontSize=16;" vertex="1" parent="X3bHwzdbiimVvPXPTUk3-52">
          <mxGeometry width="30" height="39" as="geometry">
            <mxRectangle width="30" height="39" as="alternateBounds" />
          </mxGeometry>
        </mxCell>
        <mxCell id="X3bHwzdbiimVvPXPTUk3-54" value="subcategory" style="shape=partialRectangle;connectable=0;fillColor=none;top=0;left=0;bottom=0;right=0;align=left;spacingLeft=6;overflow=hidden;whiteSpace=wrap;html=1;fontSize=16;" vertex="1" parent="X3bHwzdbiimVvPXPTUk3-52">
          <mxGeometry x="30" width="150" height="39" as="geometry">
            <mxRectangle width="150" height="39" as="alternateBounds" />
          </mxGeometry>
        </mxCell>
        <mxCell id="X3bHwzdbiimVvPXPTUk3-55" value="" style="shape=tableRow;horizontal=0;startSize=0;swimlaneHead=0;swimlaneBody=0;fillColor=none;collapsible=0;dropTarget=0;points=[[0,0.5],[1,0.5]];portConstraint=eastwest;top=0;left=0;right=0;bottom=0;fontSize=16;" vertex="1" parent="X3bHwzdbiimVvPXPTUk3-33">
          <mxGeometry y="313" width="180" height="39" as="geometry" />
        </mxCell>
        <mxCell id="X3bHwzdbiimVvPXPTUk3-56" value="" style="shape=partialRectangle;connectable=0;fillColor=none;top=0;left=0;bottom=0;right=0;editable=1;overflow=hidden;whiteSpace=wrap;html=1;fontSize=16;" vertex="1" parent="X3bHwzdbiimVvPXPTUk3-55">
          <mxGeometry width="30" height="39" as="geometry">
            <mxRectangle width="30" height="39" as="alternateBounds" />
          </mxGeometry>
        </mxCell>
        <mxCell id="X3bHwzdbiimVvPXPTUk3-57" value="maintenance" style="shape=partialRectangle;connectable=0;fillColor=none;top=0;left=0;bottom=0;right=0;align=left;spacingLeft=6;overflow=hidden;whiteSpace=wrap;html=1;fontSize=16;" vertex="1" parent="X3bHwzdbiimVvPXPTUk3-55">
          <mxGeometry x="30" width="150" height="39" as="geometry">
            <mxRectangle width="150" height="39" as="alternateBounds" />
          </mxGeometry>
        </mxCell>
        <mxCell id="X3bHwzdbiimVvPXPTUk3-58" value="" style="shape=tableRow;horizontal=0;startSize=0;swimlaneHead=0;swimlaneBody=0;fillColor=none;collapsible=0;dropTarget=0;points=[[0,0.5],[1,0.5]];portConstraint=eastwest;top=0;left=0;right=0;bottom=0;fontSize=16;" vertex="1" parent="X3bHwzdbiimVvPXPTUk3-33">
          <mxGeometry y="352" width="180" height="39" as="geometry" />
        </mxCell>
        <mxCell id="X3bHwzdbiimVvPXPTUk3-59" value="" style="shape=partialRectangle;connectable=0;fillColor=none;top=0;left=0;bottom=0;right=0;editable=1;overflow=hidden;whiteSpace=wrap;html=1;fontSize=16;" vertex="1" parent="X3bHwzdbiimVvPXPTUk3-58">
          <mxGeometry width="30" height="39" as="geometry">
            <mxRectangle width="30" height="39" as="alternateBounds" />
          </mxGeometry>
        </mxCell>
        <mxCell id="X3bHwzdbiimVvPXPTUk3-60" value="cost" style="shape=partialRectangle;connectable=0;fillColor=none;top=0;left=0;bottom=0;right=0;align=left;spacingLeft=6;overflow=hidden;whiteSpace=wrap;html=1;fontSize=16;" vertex="1" parent="X3bHwzdbiimVvPXPTUk3-58">
          <mxGeometry x="30" width="150" height="39" as="geometry">
            <mxRectangle width="150" height="39" as="alternateBounds" />
          </mxGeometry>
        </mxCell>
        <mxCell id="X3bHwzdbiimVvPXPTUk3-61" value="" style="shape=tableRow;horizontal=0;startSize=0;swimlaneHead=0;swimlaneBody=0;fillColor=none;collapsible=0;dropTarget=0;points=[[0,0.5],[1,0.5]];portConstraint=eastwest;top=0;left=0;right=0;bottom=0;fontSize=16;" vertex="1" parent="X3bHwzdbiimVvPXPTUk3-33">
          <mxGeometry y="391" width="180" height="39" as="geometry" />
        </mxCell>
        <mxCell id="X3bHwzdbiimVvPXPTUk3-62" value="" style="shape=partialRectangle;connectable=0;fillColor=none;top=0;left=0;bottom=0;right=0;editable=1;overflow=hidden;whiteSpace=wrap;html=1;fontSize=16;" vertex="1" parent="X3bHwzdbiimVvPXPTUk3-61">
          <mxGeometry width="30" height="39" as="geometry">
            <mxRectangle width="30" height="39" as="alternateBounds" />
          </mxGeometry>
        </mxCell>
        <mxCell id="X3bHwzdbiimVvPXPTUk3-63" value="product_line" style="shape=partialRectangle;connectable=0;fillColor=none;top=0;left=0;bottom=0;right=0;align=left;spacingLeft=6;overflow=hidden;whiteSpace=wrap;html=1;fontSize=16;" vertex="1" parent="X3bHwzdbiimVvPXPTUk3-61">
          <mxGeometry x="30" width="150" height="39" as="geometry">
            <mxRectangle width="150" height="39" as="alternateBounds" />
          </mxGeometry>
        </mxCell>
        <mxCell id="X3bHwzdbiimVvPXPTUk3-64" value="" style="shape=tableRow;horizontal=0;startSize=0;swimlaneHead=0;swimlaneBody=0;fillColor=none;collapsible=0;dropTarget=0;points=[[0,0.5],[1,0.5]];portConstraint=eastwest;top=0;left=0;right=0;bottom=0;fontSize=16;" vertex="1" parent="X3bHwzdbiimVvPXPTUk3-33">
          <mxGeometry y="430" width="180" height="39" as="geometry" />
        </mxCell>
        <mxCell id="X3bHwzdbiimVvPXPTUk3-65" value="" style="shape=partialRectangle;connectable=0;fillColor=none;top=0;left=0;bottom=0;right=0;editable=1;overflow=hidden;whiteSpace=wrap;html=1;fontSize=16;" vertex="1" parent="X3bHwzdbiimVvPXPTUk3-64">
          <mxGeometry width="30" height="39" as="geometry">
            <mxRectangle width="30" height="39" as="alternateBounds" />
          </mxGeometry>
        </mxCell>
        <mxCell id="X3bHwzdbiimVvPXPTUk3-66" value="start_date" style="shape=partialRectangle;connectable=0;fillColor=none;top=0;left=0;bottom=0;right=0;align=left;spacingLeft=6;overflow=hidden;whiteSpace=wrap;html=1;fontSize=16;" vertex="1" parent="X3bHwzdbiimVvPXPTUk3-64">
          <mxGeometry x="30" width="150" height="39" as="geometry">
            <mxRectangle width="150" height="39" as="alternateBounds" />
          </mxGeometry>
        </mxCell>
        <mxCell id="X3bHwzdbiimVvPXPTUk3-67" value="gold.fact_sales" style="shape=table;startSize=40;container=1;collapsible=1;childLayout=tableLayout;fixedRows=1;rowLines=0;fontStyle=1;align=center;resizeLast=1;html=1;rounded=1;fillColor=#dae8fc;strokeColor=#6c8ebf;fontSize=16;" vertex="1" parent="1">
          <mxGeometry x="430" y="150" width="180" height="391" as="geometry" />
        </mxCell>
        <mxCell id="X3bHwzdbiimVvPXPTUk3-71" value="" style="shape=tableRow;horizontal=0;startSize=0;swimlaneHead=0;swimlaneBody=0;fillColor=none;collapsible=0;dropTarget=0;points=[[0,0.5],[1,0.5]];portConstraint=eastwest;top=0;left=0;right=0;bottom=0;fontSize=16;" vertex="1" parent="X3bHwzdbiimVvPXPTUk3-67">
          <mxGeometry y="40" width="180" height="39" as="geometry" />
        </mxCell>
        <mxCell id="X3bHwzdbiimVvPXPTUk3-72" value="" style="shape=partialRectangle;connectable=0;fillColor=none;top=0;left=0;bottom=0;right=0;editable=1;overflow=hidden;whiteSpace=wrap;html=1;fontSize=16;" vertex="1" parent="X3bHwzdbiimVvPXPTUk3-71">
          <mxGeometry width="40" height="39" as="geometry">
            <mxRectangle width="40" height="39" as="alternateBounds" />
          </mxGeometry>
        </mxCell>
        <mxCell id="X3bHwzdbiimVvPXPTUk3-73" value="order_number" style="shape=partialRectangle;connectable=0;fillColor=none;top=0;left=0;bottom=0;right=0;align=left;spacingLeft=6;overflow=hidden;whiteSpace=wrap;html=1;fontSize=16;" vertex="1" parent="X3bHwzdbiimVvPXPTUk3-71">
          <mxGeometry x="40" width="140" height="39" as="geometry">
            <mxRectangle width="140" height="39" as="alternateBounds" />
          </mxGeometry>
        </mxCell>
        <mxCell id="X3bHwzdbiimVvPXPTUk3-102" value="" style="shape=tableRow;horizontal=0;startSize=0;swimlaneHead=0;swimlaneBody=0;fillColor=none;collapsible=0;dropTarget=0;points=[[0,0.5],[1,0.5]];portConstraint=eastwest;top=0;left=0;right=0;bottom=0;fontSize=16;" vertex="1" parent="X3bHwzdbiimVvPXPTUk3-67">
          <mxGeometry y="79" width="180" height="39" as="geometry" />
        </mxCell>
        <mxCell id="X3bHwzdbiimVvPXPTUk3-103" value="FK1" style="shape=partialRectangle;connectable=0;fillColor=none;top=0;left=0;bottom=0;right=0;editable=1;overflow=hidden;whiteSpace=wrap;html=1;fontSize=16;" vertex="1" parent="X3bHwzdbiimVvPXPTUk3-102">
          <mxGeometry width="40" height="39" as="geometry">
            <mxRectangle width="40" height="39" as="alternateBounds" />
          </mxGeometry>
        </mxCell>
        <mxCell id="X3bHwzdbiimVvPXPTUk3-104" value="product_key" style="shape=partialRectangle;connectable=0;fillColor=none;top=0;left=0;bottom=0;right=0;align=left;spacingLeft=6;overflow=hidden;whiteSpace=wrap;html=1;fontSize=16;" vertex="1" parent="X3bHwzdbiimVvPXPTUk3-102">
          <mxGeometry x="40" width="140" height="39" as="geometry">
            <mxRectangle width="140" height="39" as="alternateBounds" />
          </mxGeometry>
        </mxCell>
        <mxCell id="X3bHwzdbiimVvPXPTUk3-74" value="" style="shape=tableRow;horizontal=0;startSize=0;swimlaneHead=0;swimlaneBody=0;fillColor=none;collapsible=0;dropTarget=0;points=[[0,0.5],[1,0.5]];portConstraint=eastwest;top=0;left=0;right=0;bottom=0;fontSize=16;" vertex="1" parent="X3bHwzdbiimVvPXPTUk3-67">
          <mxGeometry y="118" width="180" height="39" as="geometry" />
        </mxCell>
        <mxCell id="X3bHwzdbiimVvPXPTUk3-75" value="FK2" style="shape=partialRectangle;connectable=0;fillColor=none;top=0;left=0;bottom=0;right=0;editable=1;overflow=hidden;whiteSpace=wrap;html=1;fontSize=16;" vertex="1" parent="X3bHwzdbiimVvPXPTUk3-74">
          <mxGeometry width="40" height="39" as="geometry">
            <mxRectangle width="40" height="39" as="alternateBounds" />
          </mxGeometry>
        </mxCell>
        <mxCell id="X3bHwzdbiimVvPXPTUk3-76" value="customer_key" style="shape=partialRectangle;connectable=0;fillColor=none;top=0;left=0;bottom=0;right=0;align=left;spacingLeft=6;overflow=hidden;whiteSpace=wrap;html=1;fontSize=16;" vertex="1" parent="X3bHwzdbiimVvPXPTUk3-74">
          <mxGeometry x="40" width="140" height="39" as="geometry">
            <mxRectangle width="140" height="39" as="alternateBounds" />
          </mxGeometry>
        </mxCell>
        <mxCell id="X3bHwzdbiimVvPXPTUk3-77" value="" style="shape=tableRow;horizontal=0;startSize=0;swimlaneHead=0;swimlaneBody=0;fillColor=none;collapsible=0;dropTarget=0;points=[[0,0.5],[1,0.5]];portConstraint=eastwest;top=0;left=0;right=0;bottom=0;fontSize=16;" vertex="1" parent="X3bHwzdbiimVvPXPTUk3-67">
          <mxGeometry y="157" width="180" height="39" as="geometry" />
        </mxCell>
        <mxCell id="X3bHwzdbiimVvPXPTUk3-78" value="" style="shape=partialRectangle;connectable=0;fillColor=none;top=0;left=0;bottom=0;right=0;editable=1;overflow=hidden;whiteSpace=wrap;html=1;fontSize=16;" vertex="1" parent="X3bHwzdbiimVvPXPTUk3-77">
          <mxGeometry width="40" height="39" as="geometry">
            <mxRectangle width="40" height="39" as="alternateBounds" />
          </mxGeometry>
        </mxCell>
        <mxCell id="X3bHwzdbiimVvPXPTUk3-79" value="order_date" style="shape=partialRectangle;connectable=0;fillColor=none;top=0;left=0;bottom=0;right=0;align=left;spacingLeft=6;overflow=hidden;whiteSpace=wrap;html=1;fontSize=16;" vertex="1" parent="X3bHwzdbiimVvPXPTUk3-77">
          <mxGeometry x="40" width="140" height="39" as="geometry">
            <mxRectangle width="140" height="39" as="alternateBounds" />
          </mxGeometry>
        </mxCell>
        <mxCell id="X3bHwzdbiimVvPXPTUk3-80" value="" style="shape=tableRow;horizontal=0;startSize=0;swimlaneHead=0;swimlaneBody=0;fillColor=none;collapsible=0;dropTarget=0;points=[[0,0.5],[1,0.5]];portConstraint=eastwest;top=0;left=0;right=0;bottom=0;fontSize=16;" vertex="1" parent="X3bHwzdbiimVvPXPTUk3-67">
          <mxGeometry y="196" width="180" height="39" as="geometry" />
        </mxCell>
        <mxCell id="X3bHwzdbiimVvPXPTUk3-81" value="" style="shape=partialRectangle;connectable=0;fillColor=none;top=0;left=0;bottom=0;right=0;editable=1;overflow=hidden;whiteSpace=wrap;html=1;fontSize=16;" vertex="1" parent="X3bHwzdbiimVvPXPTUk3-80">
          <mxGeometry width="40" height="39" as="geometry">
            <mxRectangle width="40" height="39" as="alternateBounds" />
          </mxGeometry>
        </mxCell>
        <mxCell id="X3bHwzdbiimVvPXPTUk3-82" value="shipping_date" style="shape=partialRectangle;connectable=0;fillColor=none;top=0;left=0;bottom=0;right=0;align=left;spacingLeft=6;overflow=hidden;whiteSpace=wrap;html=1;fontSize=16;" vertex="1" parent="X3bHwzdbiimVvPXPTUk3-80">
          <mxGeometry x="40" width="140" height="39" as="geometry">
            <mxRectangle width="140" height="39" as="alternateBounds" />
          </mxGeometry>
        </mxCell>
        <mxCell id="X3bHwzdbiimVvPXPTUk3-83" value="" style="shape=tableRow;horizontal=0;startSize=0;swimlaneHead=0;swimlaneBody=0;fillColor=none;collapsible=0;dropTarget=0;points=[[0,0.5],[1,0.5]];portConstraint=eastwest;top=0;left=0;right=0;bottom=0;fontSize=16;" vertex="1" parent="X3bHwzdbiimVvPXPTUk3-67">
          <mxGeometry y="235" width="180" height="39" as="geometry" />
        </mxCell>
        <mxCell id="X3bHwzdbiimVvPXPTUk3-84" value="" style="shape=partialRectangle;connectable=0;fillColor=none;top=0;left=0;bottom=0;right=0;editable=1;overflow=hidden;whiteSpace=wrap;html=1;fontSize=16;" vertex="1" parent="X3bHwzdbiimVvPXPTUk3-83">
          <mxGeometry width="40" height="39" as="geometry">
            <mxRectangle width="40" height="39" as="alternateBounds" />
          </mxGeometry>
        </mxCell>
        <mxCell id="X3bHwzdbiimVvPXPTUk3-85" value="due_date" style="shape=partialRectangle;connectable=0;fillColor=none;top=0;left=0;bottom=0;right=0;align=left;spacingLeft=6;overflow=hidden;whiteSpace=wrap;html=1;fontSize=16;" vertex="1" parent="X3bHwzdbiimVvPXPTUk3-83">
          <mxGeometry x="40" width="140" height="39" as="geometry">
            <mxRectangle width="140" height="39" as="alternateBounds" />
          </mxGeometry>
        </mxCell>
        <mxCell id="X3bHwzdbiimVvPXPTUk3-86" value="" style="shape=tableRow;horizontal=0;startSize=0;swimlaneHead=0;swimlaneBody=0;fillColor=none;collapsible=0;dropTarget=0;points=[[0,0.5],[1,0.5]];portConstraint=eastwest;top=0;left=0;right=0;bottom=0;fontSize=16;" vertex="1" parent="X3bHwzdbiimVvPXPTUk3-67">
          <mxGeometry y="274" width="180" height="39" as="geometry" />
        </mxCell>
        <mxCell id="X3bHwzdbiimVvPXPTUk3-87" value="" style="shape=partialRectangle;connectable=0;fillColor=none;top=0;left=0;bottom=0;right=0;editable=1;overflow=hidden;whiteSpace=wrap;html=1;fontSize=16;" vertex="1" parent="X3bHwzdbiimVvPXPTUk3-86">
          <mxGeometry width="40" height="39" as="geometry">
            <mxRectangle width="40" height="39" as="alternateBounds" />
          </mxGeometry>
        </mxCell>
        <mxCell id="X3bHwzdbiimVvPXPTUk3-88" value="sales_amount" style="shape=partialRectangle;connectable=0;fillColor=none;top=0;left=0;bottom=0;right=0;align=left;spacingLeft=6;overflow=hidden;whiteSpace=wrap;html=1;fontSize=16;" vertex="1" parent="X3bHwzdbiimVvPXPTUk3-86">
          <mxGeometry x="40" width="140" height="39" as="geometry">
            <mxRectangle width="140" height="39" as="alternateBounds" />
          </mxGeometry>
        </mxCell>
        <mxCell id="X3bHwzdbiimVvPXPTUk3-89" value="" style="shape=tableRow;horizontal=0;startSize=0;swimlaneHead=0;swimlaneBody=0;fillColor=none;collapsible=0;dropTarget=0;points=[[0,0.5],[1,0.5]];portConstraint=eastwest;top=0;left=0;right=0;bottom=0;fontSize=16;" vertex="1" parent="X3bHwzdbiimVvPXPTUk3-67">
          <mxGeometry y="313" width="180" height="39" as="geometry" />
        </mxCell>
        <mxCell id="X3bHwzdbiimVvPXPTUk3-90" value="" style="shape=partialRectangle;connectable=0;fillColor=none;top=0;left=0;bottom=0;right=0;editable=1;overflow=hidden;whiteSpace=wrap;html=1;fontSize=16;" vertex="1" parent="X3bHwzdbiimVvPXPTUk3-89">
          <mxGeometry width="40" height="39" as="geometry">
            <mxRectangle width="40" height="39" as="alternateBounds" />
          </mxGeometry>
        </mxCell>
        <mxCell id="X3bHwzdbiimVvPXPTUk3-91" value="quantity" style="shape=partialRectangle;connectable=0;fillColor=none;top=0;left=0;bottom=0;right=0;align=left;spacingLeft=6;overflow=hidden;whiteSpace=wrap;html=1;fontSize=16;" vertex="1" parent="X3bHwzdbiimVvPXPTUk3-89">
          <mxGeometry x="40" width="140" height="39" as="geometry">
            <mxRectangle width="140" height="39" as="alternateBounds" />
          </mxGeometry>
        </mxCell>
        <mxCell id="X3bHwzdbiimVvPXPTUk3-92" value="" style="shape=tableRow;horizontal=0;startSize=0;swimlaneHead=0;swimlaneBody=0;fillColor=none;collapsible=0;dropTarget=0;points=[[0,0.5],[1,0.5]];portConstraint=eastwest;top=0;left=0;right=0;bottom=0;fontSize=16;" vertex="1" parent="X3bHwzdbiimVvPXPTUk3-67">
          <mxGeometry y="352" width="180" height="39" as="geometry" />
        </mxCell>
        <mxCell id="X3bHwzdbiimVvPXPTUk3-93" value="" style="shape=partialRectangle;connectable=0;fillColor=none;top=0;left=0;bottom=0;right=0;editable=1;overflow=hidden;whiteSpace=wrap;html=1;fontSize=16;" vertex="1" parent="X3bHwzdbiimVvPXPTUk3-92">
          <mxGeometry width="40" height="39" as="geometry">
            <mxRectangle width="40" height="39" as="alternateBounds" />
          </mxGeometry>
        </mxCell>
        <mxCell id="X3bHwzdbiimVvPXPTUk3-94" value="price" style="shape=partialRectangle;connectable=0;fillColor=none;top=0;left=0;bottom=0;right=0;align=left;spacingLeft=6;overflow=hidden;whiteSpace=wrap;html=1;fontSize=16;" vertex="1" parent="X3bHwzdbiimVvPXPTUk3-92">
          <mxGeometry x="40" width="140" height="39" as="geometry">
            <mxRectangle width="140" height="39" as="alternateBounds" />
          </mxGeometry>
        </mxCell>
        <mxCell id="X3bHwzdbiimVvPXPTUk3-105" value="" style="edgeStyle=entityRelationEdgeStyle;fontSize=12;html=1;endArrow=ERzeroToMany;startArrow=ERmandOne;rounded=0;exitX=0.967;exitY=0.538;exitDx=0;exitDy=0;exitPerimeter=0;entryX=0;entryY=0.5;entryDx=0;entryDy=0;" edge="1" parent="1" source="X3bHwzdbiimVvPXPTUk3-3" target="X3bHwzdbiimVvPXPTUk3-74">
          <mxGeometry width="100" height="100" relative="1" as="geometry">
            <mxPoint x="330" y="380" as="sourcePoint" />
            <mxPoint x="430" y="280" as="targetPoint" />
          </mxGeometry>
        </mxCell>
        <mxCell id="X3bHwzdbiimVvPXPTUk3-106" value="" style="edgeStyle=entityRelationEdgeStyle;fontSize=12;html=1;endArrow=ERzeroToMany;startArrow=ERmandOne;rounded=0;exitX=0;exitY=0.5;exitDx=0;exitDy=0;entryX=1;entryY=0.5;entryDx=0;entryDy=0;" edge="1" parent="1" source="X3bHwzdbiimVvPXPTUk3-34" target="X3bHwzdbiimVvPXPTUk3-102">
          <mxGeometry width="100" height="100" relative="1" as="geometry">
            <mxPoint x="610" y="220" as="sourcePoint" />
            <mxPoint x="736" y="307" as="targetPoint" />
          </mxGeometry>
        </mxCell>
        <mxCell id="X3bHwzdbiimVvPXPTUk3-107" value="&lt;h1 style=&quot;margin-top: 0px;&quot;&gt;&lt;span style=&quot;background-color: transparent; color: light-dark(rgb(0, 0, 0), rgb(255, 255, 255));&quot;&gt;&lt;font style=&quot;font-size: 20px;&quot;&gt;&lt;u&gt;S&lt;font style=&quot;&quot;&gt;ales Calcualation&lt;/font&gt;&lt;/u&gt;&lt;/font&gt;&lt;/span&gt;&lt;/h1&gt;&lt;h1 style=&quot;margin-top: 0px;&quot;&gt;&lt;span style=&quot;background-color: transparent; color: light-dark(rgb(0, 0, 0), rgb(255, 255, 255)); font-weight: normal;&quot;&gt;&lt;font style=&quot;font-size: 14px;&quot;&gt;Sales = Quantity * Price&lt;/font&gt;&lt;/span&gt;&lt;/h1&gt;" style="text;html=1;whiteSpace=wrap;overflow=hidden;rounded=0;" vertex="1" parent="1">
          <mxGeometry x="440" y="580" width="180" height="80" as="geometry" />
        </mxCell>
        <mxCell id="X3bHwzdbiimVvPXPTUk3-109" value="" style="endArrow=none;dashed=1;html=1;dashPattern=1 3;strokeWidth=2;rounded=0;exitX=0.519;exitY=0.094;exitDx=0;exitDy=0;exitPerimeter=0;entryX=0.689;entryY=-0.038;entryDx=0;entryDy=0;entryPerimeter=0;" edge="1" parent="1" source="X3bHwzdbiimVvPXPTUk3-107" target="X3bHwzdbiimVvPXPTUk3-89">
          <mxGeometry width="50" height="50" relative="1" as="geometry">
            <mxPoint x="525" y="610" as="sourcePoint" />
            <mxPoint x="575" y="560" as="targetPoint" />
          </mxGeometry>
        </mxCell>
      </root>
    </mxGraphModel>
  </diagram>
</mxfile>
